<svg version="1.1" xmlns="http://www.w3.org/2000/svg" xmlns:xlink="http://www.w3.org/1999/xlink" width="178.54649" height="84.5" viewBox="0,0,178.54649,84.5"><defs><linearGradient x1="256.51652" y1="79.93994" x2="256.51652" y2="159.93994" gradientUnits="userSpaceOnUse" id="color-1"><stop offset="0" stop-color="#6e6e6e"/><stop offset="1" stop-color="#2c5b4e"/></linearGradient></defs><g transform="translate(-167.24327,-77.68994)"><g data-paper-data="{&quot;isPaintingLayer&quot;:true}" fill-rule="nonzero" stroke-linecap="butt" stroke-linejoin="miter" stroke-miterlimit="10" stroke-dasharray="" stroke-dashoffset="0" style="mix-blend-mode: normal"><path d="M172.05277,159.93994c-1.41358,0 -2.5595,-1.66592 -2.5595,-3.72093v-72.55814c0,-2.05501 1.14593,-3.72093 2.5595,-3.72093h168.92749c1.41358,0 2.5595,1.66592 2.5595,3.72093v72.55814c0,2.05501 -1.14593,3.72093 -2.5595,3.72093z" fill="url(#color-1)" stroke="#000000" stroke-width="4.5"/><text transform="translate(189.24564,127.9676) scale(0.69579,0.69579)" font-size="40" xml:space="preserve" fill="#000000" fill-rule="nonzero" stroke="none" stroke-width="1" stroke-linecap="butt" stroke-linejoin="miter" stroke-miterlimit="10" stroke-dasharray="" stroke-dashoffset="0" font-family="Archivo Black" font-weight="normal" text-anchor="start" style="mix-blend-mode: normal"><tspan x="0" dy="0">close</tspan></text><path d="M313.5908,125.29016c1.4228,1.29792 1.38314,3.37358 -0.09046,4.62754c-0.69647,0.59203 -1.61262,0.91828 -2.58091,0.91828v0c-1.01641,0 -1.9651,-0.35451 -2.67093,-0.99916l-6.07798,-5.54425l-6.16889,5.46494c-0.70227,0.62266 -1.63802,0.9654 -2.63349,0.9654c-0.98745,0 -1.91831,-0.33842 -2.61879,-0.95283c-1.45221,-1.2724 -1.458,-3.34846 -0.01381,-4.62754l6.27405,-5.55799l-6.18136,-5.63847c-1.42236,-1.29832 -1.3818,-3.37358 0.09135,-4.62754c0.69603,-0.59164 1.61262,-0.91828 2.58002,-0.91828c1.01686,0 1.96554,0.35491 2.67226,0.99916l6.07798,5.54346l6.16844,-5.46416c0.70271,-0.62226 1.63847,-0.965 2.63394,-0.965c0.98834,0 1.91875,0.33802 2.61879,0.95205c1.45176,1.2724 1.45845,3.34846 0.01381,4.62793l-6.2736,5.55799z" fill="#000000" stroke="none" stroke-width="1"/></g></g></svg>