<svg version="1.1" xmlns="http://www.w3.org/2000/svg" xmlns:xlink="http://www.w3.org/1999/xlink" width="67.44445" height="66" viewBox="0,0,67.44445,66"><g transform="translate(-278.42367,-157.10439)"><g data-paper-data="{&quot;isPaintingLayer&quot;:true}" fill-rule="nonzero" stroke-linecap="butt" stroke-linejoin="miter" stroke-miterlimit="10" stroke-dasharray="" stroke-dashoffset="0" style="mix-blend-mode: normal"><path d="M283.14589,221.60439c-1.77958,0 -3.22222,-1.567 -3.22222,-3.5v-56c0,-1.933 1.44263,-3.5 3.22222,-3.5h58c1.77958,0 3.22222,1.567 3.22222,3.5v56c0,1.933 -1.44264,3.5 -3.22222,3.5z" fill="#12fc3e" stroke="#000000" stroke-width="3"/><path d="M323.15216,190.10439c0,6.27311 -4.92768,11.35848 -11.00627,11.35848c-6.0786,0 -11.00627,-5.08537 -11.00627,-11.35848c0,-6.27311 4.92767,-11.35848 11.00627,-11.35848c6.0786,0 11.00627,5.08537 11.00627,11.35848z" fill="none" stroke="#ffffff" stroke-width="14.5"/><path d="M318.65335,165.99553v9.22876h-13.01492v-9.22876z" data-paper-data="{&quot;index&quot;:null}" fill="#ffffff" stroke="none" stroke-width="0"/><path d="M323.25355,176.12298l8.69938,-3.08073l4.34462,12.26835l-8.69938,3.08073z" fill="#ffffff" stroke="none" stroke-width="0"/><path d="M295.70865,187.67454l-8.69937,-3.08073l4.34462,-12.26835l8.69937,3.08073z" data-paper-data="{&quot;index&quot;:null}" fill="#ffffff" stroke="none" stroke-width="0"/><path d="M303.82918,204.68071l-7.47719,5.4094l-7.62864,-10.54476l7.47719,-5.4094z" data-paper-data="{&quot;index&quot;:null}" fill="#ffffff" stroke="none" stroke-width="0"/><path d="M329.71708,194.15443l7.14373,5.8427l-8.2397,10.07449l-7.14373,-5.84269z" fill="#ffffff" stroke="none" stroke-width="0"/><path d="M318.65335,205.30797v9.22876h-13.01491v-9.22876z" data-paper-data="{&quot;index&quot;:null}" fill="#ffffff" stroke="none" stroke-width="0"/></g></g></svg>