<svg version="1.1" xmlns="http://www.w3.org/2000/svg" xmlns:xlink="http://www.w3.org/1999/xlink" width="852.57931" height="536.39273" viewBox="0,0,852.57931,536.39273"><defs><linearGradient x1="273.03303" y1="-51.2042" x2="273.03303" y2="445.79279" gradientUnits="userSpaceOnUse" id="color-1"><stop offset="0" stop-color="#02001f"/><stop offset="1" stop-color="#00ff60"/></linearGradient></defs><g transform="translate(171.89162,75.29063)"><g data-paper-data="{&quot;isPaintingLayer&quot;:true}" fill-rule="nonzero" stroke="#000000" stroke-width="6" stroke-linecap="butt" stroke-linejoin="miter" stroke-miterlimit="10" stroke-dasharray="" stroke-dashoffset="0" style="mix-blend-mode: normal"><path d="M4.5,450c-2.20914,0 -4,-1.79086 -4,-4v-430c0,-2.20914 1.79086,-4 4,-4h455c2.20914,0 4,1.79086 4,4v430c0,2.20914 -1.79086,4 -4,4z" fill="#ebfffd"/><path d="M-90.08408,458.1021c-2.20914,0 -4,-1.79086 -4,-4v-495.003c0,-2.20914 1.79086,-4 4,-4h660.16817c2.20914,0 4,1.79086 4,4v495.003c0,2.20914 -1.79086,4 -4,4z" fill="#ebfffd"/><path d="M-143.00126,-63.21622l42.91117,-9.00901l42.91117,9.00901z" fill="#ebfffd"/><path d="M-127.62162,445.79279c-2.20914,0 -4,-1.79086 -4,-4v-488.997c0,-2.20914 1.79086,-4 4,-4h801.30931c2.20914,0 4,1.79086 4,4v488.997c0,2.20914 -1.79086,4 -4,4z" fill="url(#color-1)"/></g></g></svg>