<svg version="1.1" xmlns="http://www.w3.org/2000/svg" xmlns:xlink="http://www.w3.org/1999/xlink" width="67.44444" height="66" viewBox="0,0,67.44444,66"><g transform="translate(-278.42367,-157.1044)"><g data-paper-data="{&quot;isPaintingLayer&quot;:true}" fill-rule="nonzero" stroke-linejoin="miter" stroke-miterlimit="10" stroke-dasharray="" stroke-dashoffset="0" style="mix-blend-mode: normal"><path d="M283.14589,221.6044c-1.77958,0 -3.22222,-1.567 -3.22222,-3.5v-56c0,-1.933 1.44263,-3.5 3.22222,-3.5h58c1.77958,0 3.22222,1.567 3.22222,3.5v56c0,1.933 -1.44264,3.5 -3.22222,3.5z" fill="#12fc3e" stroke="#000000" stroke-width="3" stroke-linecap="butt"/><path d="M331.84341,190.10439c0,10.96106 -8.81889,19.84676 -19.69753,19.84676c-10.87865,0 -19.69753,-8.8857 -19.69753,-19.84676c0,-10.96106 8.81888,-19.84675 19.69753,-19.84675c10.87865,0 19.69753,8.88569 19.69753,19.84675z" fill="none" stroke="#ffffff" stroke-width="4.5" stroke-linecap="butt"/><path d="M304.13357,172.64522c0,0 -3.83132,11.22894 -3.83132,16.41461c0,4.8379 -0.85417,16.89162 5.87469,19.69753" fill="none" stroke="#ffffff" stroke-width="4.5" stroke-linecap="round"/><path d="M311.80364,172.04833c0,0 1.43857,11.22894 1.43857,16.41461c0,4.8379 0.32072,16.89162 -2.2058,19.69753" fill="none" stroke="#ffffff" stroke-width="4.5" stroke-linecap="round"/><path d="M323.22506,175.16799c0,0 3.40356,11.15615 2.89455,16.11539c-0.47487,4.62665 -0.6535,16.24713 -8.84229,18.19724" fill="none" stroke="#ffffff" stroke-width="4.5" stroke-linecap="round"/><path d="M300.26723,174.51951c0,0 7.36161,5.80799 11.15919,5.78047c1.39424,-0.0101 3.50334,0.42642 5.4222,-0.41895c4.0055,-1.76466 7.91638,-5.53904 7.91638,-5.53904" fill="none" stroke="#ffffff" stroke-width="4.5" stroke-linecap="round"/><path d="M295.43283,186.90633c0,0 10.0446,6.50961 15.22622,6.47877c1.90238,-0.01133 4.78016,0.47794 7.39835,-0.46956c5.46533,-1.97784 10.80154,-6.20817 10.80154,-6.20817" fill="none" stroke="#ffffff" stroke-width="4.5" stroke-linecap="round"/><path d="M296.54231,195.89379c0,0 10.0446,6.50961 15.22622,6.47877c1.90238,-0.01133 4.78016,0.47794 7.39835,-0.46956c5.46533,-1.97784 10.80154,-6.20817 10.80154,-6.20817" fill="none" stroke="#ffffff" stroke-width="4.5" stroke-linecap="round"/></g></g></svg>