<svg version="1.1" xmlns="http://www.w3.org/2000/svg" xmlns:xlink="http://www.w3.org/1999/xlink" width="26.86356" height="27.23622" viewBox="0,0,26.86356,27.23622"><g transform="translate(-226.63616,-166.31516)"><g data-paper-data="{&quot;isPaintingLayer&quot;:true}" fill-rule="nonzero" stroke-width="1" stroke-linecap="butt" stroke-linejoin="miter" stroke-miterlimit="10" stroke-dasharray="" stroke-dashoffset="0" style="mix-blend-mode: normal"><path d="M228.21413,186.66598c-1.47329,1.52572 -1.43126,3.96574 0.09446,5.43903c0.72061,0.69634 1.67001,1.07983 2.67185,1.07983v0c1.05297,0 2.03487,-0.41685 2.76631,-1.1743l6.29354,-6.51626l6.38843,6.4231c0.72668,0.73101 1.69601,1.134 2.72688,1.134c1.0235,0 1.98677,-0.39779 2.71215,-1.11927c1.50362,-1.49582 1.51012,-3.93541 0.0143,-5.43903l-6.49676,-6.53273l6.40057,-6.62719c1.47329,-1.52529 1.43082,-3.96531 -0.09446,-5.4386c-0.72104,-0.69591 -1.66958,-1.0794 -2.67142,-1.0794c-1.05297,0 -2.03574,0.41685 -2.76718,1.1743l-6.2931,6.5154l-6.38843,-6.42267c-0.72711,-0.73144 -1.69601,-1.134 -2.72732,-1.134c-1.02307,0 -1.98634,0.39692 -2.71128,1.11883c-1.50405,1.49539 -1.51055,3.93584 -0.01517,5.43946l6.4972,6.53273z" fill="#be2026" stroke="#be2026"/><path d="M228.78525,187.21846c-1.17126,1.21243 -1.1379,3.14417 0.07453,4.3163c1.21243,1.1704 3.14504,1.13703 4.3163,-0.0754l6.85599,-7.09865l6.95912,6.99725c1.1886,1.1951 3.12077,1.2003 4.31673,0.01127c1.19466,-1.1886 1.2003,-3.12077 0.01127,-4.31673l-7.04535,-7.08435l6.94135,-7.18661c1.17083,-1.21243 1.13746,-3.1446 -0.0754,-4.3163c-1.212,-1.17083 -3.1446,-1.13703 -4.31587,0.0754l-6.85555,7.09821l-6.95955,-6.99682c-1.18903,-1.1951 -3.12164,-1.20073 -4.31673,-0.01213c-1.19553,1.18903 -1.2003,3.12164 -0.0117,4.31717l7.04621,7.08391z" fill="#dd2726" stroke="#bc192d"/></g></g></svg>